<svg width="40" height="40" viewBox="0 0 40 40" fill="none" xmlns="http://www.w3.org/2000/svg">
<rect width="40" height="40" rx="20" fill="black"/>
<path d="M22.3346 17.375V15.25C22.9763 14.9583 23.6326 14.7396 24.3034 14.5938C24.9742 14.4479 25.6791 14.375 26.418 14.375C26.9235 14.375 27.4194 14.4167 27.9055 14.5C28.3916 14.5833 28.868 14.6875 29.3346 14.8125V16.8125C28.868 16.625 28.3964 16.4844 27.9201 16.3906C27.4437 16.2969 26.943 16.25 26.418 16.25C25.6791 16.25 24.9694 16.349 24.2888 16.5469C23.6082 16.7448 22.9569 17.0208 22.3346 17.375ZM22.3346 24.25V22.125C22.9763 21.8333 23.6326 21.6146 24.3034 21.4688C24.9742 21.3229 25.6791 21.25 26.418 21.25C26.9235 21.25 27.4194 21.2917 27.9055 21.375C28.3916 21.4583 28.868 21.5625 29.3346 21.6875V23.6875C28.868 23.5 28.3964 23.3594 27.9201 23.2656C27.4437 23.1719 26.943 23.125 26.418 23.125C25.6791 23.125 24.9694 23.2188 24.2888 23.4062C23.6082 23.5938 22.9569 23.875 22.3346 24.25ZM22.3346 20.8125V18.6875C22.9763 18.3958 23.6326 18.1771 24.3034 18.0312C24.9742 17.8854 25.6791 17.8125 26.418 17.8125C26.9235 17.8125 27.4194 17.8542 27.9055 17.9375C28.3916 18.0208 28.868 18.125 29.3346 18.25V20.25C28.868 20.0625 28.3964 19.9219 27.9201 19.8281C27.4437 19.7344 26.943 19.6875 26.418 19.6875C25.6791 19.6875 24.9694 19.7865 24.2888 19.9844C23.6082 20.1823 22.9569 20.4583 22.3346 20.8125ZM13.5846 25C14.4985 25 15.3881 25.1094 16.2534 25.3281C17.1187 25.5469 17.9791 25.875 18.8346 26.3125V14C18.0374 13.5 17.1916 13.125 16.2971 12.875C15.4027 12.625 14.4985 12.5 13.5846 12.5C12.8846 12.5 12.1895 12.5729 11.4992 12.7188C10.8089 12.8646 10.143 13.0833 9.5013 13.375V25.75C10.1819 25.5 10.8576 25.3125 11.5284 25.1875C12.1992 25.0625 12.8846 25 13.5846 25ZM21.168 26.3125C22.0235 25.875 22.8839 25.5469 23.7492 25.3281C24.6145 25.1094 25.5041 25 26.418 25C27.118 25 27.8034 25.0625 28.4742 25.1875C29.1451 25.3125 29.8207 25.5 30.5013 25.75V13.375C29.8596 13.0833 29.1937 12.8646 28.5034 12.7188C27.8131 12.5729 27.118 12.5 26.418 12.5C25.5041 12.5 24.5999 12.625 23.7055 12.875C22.811 13.125 21.9652 13.5 21.168 14V26.3125ZM20.0013 30C19.068 29.2083 18.0569 28.5938 16.968 28.1562C15.8791 27.7188 14.7513 27.5 13.5846 27.5C12.768 27.5 11.9659 27.6146 11.1784 27.8438C10.3909 28.0729 9.63741 28.3958 8.91797 28.8125C8.50964 29.0417 8.11589 29.0312 7.73672 28.7812C7.35755 28.5312 7.16797 28.1667 7.16797 27.6875V12.625C7.16797 12.3958 7.22144 12.1771 7.32839 11.9688C7.43533 11.7604 7.59575 11.6042 7.80964 11.5C8.70408 11 9.63741 10.625 10.6096 10.375C11.5819 10.125 12.5735 10 13.5846 10C14.7124 10 15.8159 10.1562 16.8951 10.4688C17.9742 10.7812 19.0096 11.25 20.0013 11.875C20.993 11.25 22.0284 10.7812 23.1076 10.4688C24.1867 10.1562 25.2902 10 26.418 10C27.4291 10 28.4207 10.125 29.393 10.375C30.3652 10.625 31.2985 11 32.193 11.5C32.4069 11.6042 32.5673 11.7604 32.6742 11.9688C32.7812 12.1771 32.8346 12.3958 32.8346 12.625V27.6875C32.8346 28.1667 32.6451 28.5312 32.2659 28.7812C31.8867 29.0312 31.493 29.0417 31.0846 28.8125C30.3652 28.3958 29.6117 28.0729 28.8242 27.8438C28.0367 27.6146 27.2346 27.5 26.418 27.5C25.2513 27.5 24.1235 27.7188 23.0346 28.1562C21.9457 28.5938 20.9346 29.2083 20.0013 30Z" fill="white"/>
</svg>
